<?xml version="1.0" encoding="iso-8859-1"?>
<!-- Generator: Adobe Illustrator 19.0.0, SVG Export Plug-In . SVG Version: 6.00 Build 0)  -->
<svg version="1.1" id="Layer_1" xmlns="http://www.w3.org/2000/svg" xmlns:xlink="http://www.w3.org/1999/xlink" x="0px" y="0px"
	 viewBox="0 0 512 512" style="enable-background:new 0 0 512 512;" xml:space="preserve">
<path style="fill:#37BDD9;" d="M306.087,66.783H205.913c-9.217,0-16.696,7.473-16.696,16.696v84.826
	c0,9.223,7.479,16.696,16.696,16.696h100.174c9.217,0,16.696-7.473,16.696-16.696V83.478
	C322.783,74.256,315.304,66.783,306.087,66.783z"/>
<g>
	<path style="fill:#33A3BF;" d="M105.739,166.957c-4.272,0-8.544-1.631-11.804-4.892c-6.521-6.516-6.521-17.092,0-23.609
		l28.499-28.499V83.478c0-9.223,7.479-16.696,16.696-16.696s16.696,7.473,16.696,16.696v33.391c0,4.429-1.761,8.674-4.892,11.804
		l-33.391,33.391C114.283,165.326,110.011,166.957,105.739,166.957z"/>
	<path style="fill:#33A3BF;" d="M306.087,66.783H256V185h50.087c9.217,0,16.696-7.473,16.696-16.696V83.478
		C322.783,74.256,315.304,66.783,306.087,66.783z"/>
</g>
<path style="fill:#D9EDFF;" d="M452.55,306.55C434.541,214.443,353.297,144.696,256,144.696
	c-93.896,0-172.696,65.022-194.291,152.346c-2.956,11.952-4.804,24.301-5.498,36.983c60.022-22.424,148.024-22.737,189.822,7.716
	c50.984,38.03,139.848,32.708,210.16,0.232C456.008,329.879,454.796,318.038,452.55,306.55z"/>
<path style="fill:#BFE2FF;" d="M456.193,341.97c-0.185-12.092-1.397-23.934-3.643-35.42
	C434.541,214.443,353.297,144.696,256,144.696V348.35C308.028,378.999,390.265,372.422,456.193,341.97z"/>
<path style="fill:#57D4D4;" d="M456.193,341.97c-0.185-12.092-1.397-23.934-3.643-35.42
	c-59.009,30.835-140.403,42.052-186.583,8.406C221.38,281.697,132.05,276.441,61.709,297.04
	c-2.956,11.952-4.804,24.301-5.498,36.983c-0.201,3.671-0.559,7.3-0.559,11.02c0,65.097,31.815,126.375,85.12,163.913
	c2.805,1.978,6.163,3.043,9.609,3.043H361.62c3.446,0,6.804-1.065,9.609-3.043c53.304-37.538,85.119-98.816,85.119-163.913
	C456.348,344.006,456.208,343.004,456.193,341.97z"/>
<path style="fill:#4DBFBF;" d="M452.55,306.55c-59.009,30.835-140.403,42.052-186.583,8.406c-3.098-2.311-6.459-4.454-9.967-6.496
	V512h105.62c3.446,0,6.804-1.065,9.609-3.043c53.304-37.538,85.119-98.816,85.119-163.913c0-1.037-0.14-2.039-0.155-3.073
	C456.008,329.879,454.796,318.038,452.55,306.55z"/>
<path style="fill:#CCE8FF;" d="M339.478,100.174H139.13c-9.217,0-16.696-7.473-16.696-16.696V16.696
	C122.435,7.473,129.913,0,139.13,0h200.348c27.619,0,50.087,22.468,50.087,50.087S367.097,100.174,339.478,100.174z"/>
<path style="fill:#B0DBFF;" d="M339.478,0H256v100.174h83.478c27.619,0,50.087-22.468,50.087-50.087S367.097,0,339.478,0z"/>
<path style="fill:#37BDD9;" d="M155.826,100.174h-47.859c-26.144,0-49.535-19.065-52.07-45.086C52.986,25.232,76.469,0,105.739,0
	h50.087V100.174z"/>
<g>
</g>
<g>
</g>
<g>
</g>
<g>
</g>
<g>
</g>
<g>
</g>
<g>
</g>
<g>
</g>
<g>
</g>
<g>
</g>
<g>
</g>
<g>
</g>
<g>
</g>
<g>
</g>
<g>
</g>
</svg>
