<?xml version="1.0" encoding="iso-8859-1"?>
<!-- Generator: Adobe Illustrator 19.0.0, SVG Export Plug-In . SVG Version: 6.00 Build 0)  -->
<svg version="1.1" id="Layer_1" xmlns="http://www.w3.org/2000/svg" xmlns:xlink="http://www.w3.org/1999/xlink" x="0px" y="0px"
	 viewBox="0 0 512.271 512.271" style="enable-background:new 0 0 512.271 512.271;" xml:space="preserve">
<g>
	<path style="fill:#415A6B;" d="M60.004,512.135h-22.4c-6.4,0-10.667-4.267-10.667-10.667v-24.533H70.67v24.533
		C70.67,507.869,65.337,512.135,60.004,512.135z"/>
	<path style="fill:#415A6B;" d="M239.204,512.135h-22.4c-6.4,0-10.667-4.267-10.667-10.667v-24.533h43.733v24.533
		C249.87,507.869,245.604,512.135,239.204,512.135z"/>
</g>
<path style="fill:#E8EAE9;" d="M389.604,441.735h28.8V127.069C419.47,56.669,361.871,0.135,291.47,0.135
	S164.537,56.669,164.537,127.069v18.133h28.8v-18.133c0-54.4,43.733-98.133,98.133-98.133s98.133,43.733,98.133,98.133V441.735z"/>
<rect x="150.671" y="133.469" style="fill:#F05540;" width="58.667" height="56.533"/>
<path style="fill:#F3705A;" d="M138.937,162.269L138.937,162.269c-60.8,0-110.933,45.867-117.333,105.6L0.27,448.135
	c-2.133,16,8.533,30.933,25.6,35.2c75.733,16,150.4,16,226.133,0c16-3.2,26.667-18.133,25.6-35.2l-20.267-181.333
	C249.87,208.135,198.671,162.269,138.937,162.269z"/>
<path style="fill:#F05540;" d="M224.27,450.269l-3.2-62.933c-2.133-43.733-38.4-78.933-83.2-78.933s-81.067,34.133-83.2,78.933
	l-3.2,62.933H224.27z"/>
<circle style="fill:#FFD15C;" cx="138.937" cy="244.402" r="26.667"/>
<polygon style="fill:#415A6B;" points="498.404,463.069 310.671,463.069 296.804,512.135 512.271,512.135 "/>
<rect x="370.404" y="436.402" style="fill:#ADB3BA;" width="67.2" height="26.667"/>
<g>
</g>
<g>
</g>
<g>
</g>
<g>
</g>
<g>
</g>
<g>
</g>
<g>
</g>
<g>
</g>
<g>
</g>
<g>
</g>
<g>
</g>
<g>
</g>
<g>
</g>
<g>
</g>
<g>
</g>
</svg>
